<svg width="1228" height="1063" xmlns="http://www.w3.org/2000/svg" xmlns:xlink="http://www.w3.org/1999/xlink"><view id="close_x" viewBox="970.09 600.4 22 22"/><svg width="22" height="22" viewBox="-1 -1 22 22" x="970.09" y="600.4" xmlns="http://www.w3.org/2000/svg"><path d="M7.26 9.798L.53 16.526a1.794 1.794 0 1 0 2.539 2.539l6.728-6.728 6.728 6.728a1.794 1.794 0 1 0 2.539-2.539l-6.728-6.728 6.728-6.728A1.794 1.794 0 1 0 16.526.531L9.798 7.26 3.07.531A1.803 1.803 0 0 0 .526.526 1.794 1.794 0 0 0 .531 3.07L7.26 9.798z" fill="#1CABE2" fill-rule="evenodd"/></svg><view id="close_x-contrast" viewBox="948.09 600.4 22 22"/><svg width="22" height="22" viewBox="-1 -1 22 22" x="948.09" y="600.4" xmlns="http://www.w3.org/2000/svg"><path d="M7.26 9.798L.53 16.526a1.794 1.794 0 1 0 2.539 2.539l6.728-6.728 6.728 6.728a1.794 1.794 0 1 0 2.539-2.539l-6.728-6.728 6.728-6.728A1.794 1.794 0 1 0 16.526.531L9.798 7.26 3.07.531A1.803 1.803 0 0 0 .526.526 1.794 1.794 0 0 0 .531 3.07L7.26 9.798z" fill="#2159A8" fill-rule="evenodd"/></svg><view id="close_x-white" viewBox="992.09 600.4 22 22"/><svg width="22" height="22" viewBox="-1 -1 22 22" x="992.09" y="600.4" xmlns="http://www.w3.org/2000/svg"><path d="M7.26 9.798L.53 16.526a1.794 1.794 0 1 0 2.539 2.539l6.728-6.728 6.728 6.728a1.794 1.794 0 1 0 2.539-2.539l-6.728-6.728 6.728-6.728A1.794 1.794 0 1 0 16.526.531L9.798 7.26 3.07.531A1.803 1.803 0 0 0 .526.526 1.794 1.794 0 0 0 .531 3.07L7.26 9.798z" fill="#FFF" fill-rule="evenodd"/></svg><view id="dropdown-arrow" viewBox="1164 454.4 16 12"/><svg width="16" height="12" viewBox="-1 -1 16 12" x="1164" y="454.4" xmlns="http://www.w3.org/2000/svg"><path d="M1 1.328l5.836 5.836L13 1" stroke-width="3" stroke="#FFF" fill="none" fill-rule="evenodd"/></svg><view id="dropdown-arrow-blue" viewBox="1148 454.4 16 12"/><svg width="16" height="12" viewBox="-1 -1 16 12" x="1148" y="454.4" xmlns="http://www.w3.org/2000/svg"><path d="M1 1.328l5.836 5.836L13 1" stroke-width="3" stroke="#1CABE2" fill="none" fill-rule="evenodd"/></svg><view id="feed" viewBox="1036.09 600.4 18 18"/><svg width="18" height="18" viewBox="-1 -1 18 18" x="1036.09" y="600.4" xmlns="http://www.w3.org/2000/svg"><rect fill="#999" width="16" height="16" rx="3" ry="3"/><g fill="#fff"><circle cx="4.25" cy="11.812" r="1.5"/><path d="M10 13.312H7.875A5.126 5.126 0 0 0 2.75 8.187V6.062a7.25 7.25 0 0 1 7.25 7.25z"/><path d="M11.5 13.312a8.75 8.75 0 0 0-8.75-8.75V2.375c6.041 0 10.937 4.896 10.937 10.937H11.5z"/></g></svg><view id="icon__arrow-down" viewBox="1182 432.4 34 22"/><svg width="34" height="22" viewBox="-1 -1 34 22" x="1182" y="432.4" xmlns="http://www.w3.org/2000/svg"><path d="M16.002 14.125L3.937.75c-.903-1-2.36-.999-3.26-.001-.906 1.004-.9 2.615.001 3.614l13.426 14.884c.516.572 1.213.816 1.883.734.68.092 1.388-.154 1.91-.733L31.324 4.364c.902-1 .9-2.616 0-3.613-.906-1.005-2.359-.998-3.26 0L16.003 14.126z" fill="#1CABE2" fill-rule="evenodd"/></svg><view id="icon__arrow-up" viewBox="1148 432.4 34 22"/><svg width="34" height="22" viewBox="-1 -1 34 22" x="1148" y="432.4" xmlns="http://www.w3.org/2000/svg"><path d="M15.998 5.875L28.063 19.25c.903 1 2.36.999 3.26.001.906-1.004.9-2.615-.001-3.614L17.896.753C17.38.181 16.683-.063 16.013.02c-.68-.092-1.388.154-1.91.733L.676 15.636c-.902 1-.9 2.616 0 3.613.906 1.005 2.359.998 3.26 0L15.997 5.874z" fill="#1CABE2" fill-rule="evenodd"/></svg><view id="icon__btn-close" viewBox="1046.4 546.4 27 27"/><svg version="1.1" id="aiLayer_1" x="1046.4" y="546.4" viewBox="-130 29 27 27" xml:space="preserve" width="27" height="27" xmlns="http://www.w3.org/2000/svg"><path d="M-104 32.5l-2.5-2.5-10 10-10-10-2.5 2.5 10 10-10 10 2.5 2.5 10-10 10 10 2.5-2.5-10-10 10-10z" fill="#fff"/></svg><view id="icon__calendar" viewBox="1073.4 546.4 26 26"/><svg viewBox="-1 -1 26 26" width="26" height="26" x="1073.4" y="546.4" xmlns="http://www.w3.org/2000/svg"><path d="M19.6 3.2h-1.1V1h-2.2v2.2H7.5V1H5.3v2.2H4.2C3 3.2 2 4.2 2 5.4v15.4C2 22 3 23 4.2 23h15.4c1.2 0 2.2-1 2.2-2.2V5.4c0-1.2-1-2.2-2.2-2.2zm0 17.6H4.2V8.7h15.4v12.1zM6.4 10.9h5.5v5.5H6.4v-5.5z"/></svg><view id="icon__caption-close" viewBox="1206.09 574.4 19 19"/><svg width="19" height="19" viewBox="-1 -1 19 19" x="1206.09" y="574.4" xmlns="http://www.w3.org/2000/svg"><path d="M2 2l12.728 12.728M2 14.728L14.728 2" stroke="#1CABE2" stroke-width="3" fill="none" fill-rule="evenodd" stroke-linecap="round" stroke-linejoin="round"/></svg><view id="icon__caption-collapsed" viewBox="1182.09 574.4 24 24"/><svg width="24" height="24" viewBox="-1 -1 24 24" x="1182.09" y="574.4" xmlns="http://www.w3.org/2000/svg"><path d="M11 2v18m-9-9h18" stroke="#1CABE2" stroke-width="3" fill="none" fill-rule="evenodd" stroke-linecap="round" stroke-linejoin="round"/></svg><view id="icon__facebook" viewBox="990.4 546.4 28 28"/><svg width="28" height="28" viewBox="-1 -1 28 28" x="990.4" y="546.4" xmlns="http://www.w3.org/2000/svg"><path d="M9.087 26V14.14h4.128l.618-4.622H9.087v-2.95c0-1.339.385-2.251 2.375-2.251L14 4.316V.182C13.561.126 12.055 0 10.302 0 6.643 0 4.138 2.154 4.138 6.11v3.408H0v4.622h4.138V26h4.95z"/></svg><view id="icon__facebook-full" viewBox="0 794 268.9 268.9"/><svg viewBox="-1 -1 268.9 268.9" width="268.9" height="268.9" y="794" xmlns="http://www.w3.org/2000/svg"><path d="M252.2 0H14.7C6.6 0 0 6.6 0 14.7v237.4c0 8.1 6.6 14.7 14.7 14.7h127.8V163.5h-34.8v-40.3h34.8V93.6c0-34.5 21.1-53.2 51.8-53.2 14.7 0 27.4 1.1 31.1 1.6v36h-21.3c-16.7 0-20 7.9-20 19.6v25.7H224l-5.2 40.3h-34.7V267h68c8.1 0 14.7-6.6 14.7-14.7V14.7c.1-8.1-6.5-14.7-14.6-14.7z"/></svg><view id="icon__instagram" viewBox="1018.4 546.4 28 28"/><svg width="28" height="28" viewBox="-1 -1 28 28" x="1018.4" y="546.4" xmlns="http://www.w3.org/2000/svg"><defs><path d="M13 0c3.53 0 3.973.015 5.36.078 1.384.063 2.329.283 3.155.604.855.333 1.58.777 2.303 1.5a6.373 6.373 0 0 1 1.5 2.303c.32.826.54 1.771.604 3.155C25.985 9.027 26 9.47 26 13c0 3.53-.015 3.973-.078 5.36-.063 1.384-.283 2.329-.605 3.155a6.373 6.373 0 0 1-1.499 2.303 6.372 6.372 0 0 1-2.303 1.5c-.826.32-1.771.54-3.155.604-1.387.063-1.83.078-5.36.078-3.53 0-3.973-.015-5.36-.078-1.384-.063-2.329-.283-3.156-.604a6.372 6.372 0 0 1-2.302-1.5 6.373 6.373 0 0 1-1.5-2.303c-.32-.826-.54-1.771-.604-3.155C.015 16.973 0 16.53 0 13c0-3.53.015-3.973.078-5.36.063-1.384.283-2.329.604-3.155a6.373 6.373 0 0 1 1.5-2.303 6.372 6.372 0 0 1 2.302-1.5C5.311.362 6.256.142 7.64.078 9.027.015 9.47 0 13 0zm0 2.342c-3.471 0-3.882.014-5.253.076-1.268.058-1.956.27-2.414.448a4.028 4.028 0 0 0-1.495.972 4.028 4.028 0 0 0-.972 1.495c-.178.458-.39 1.146-.448 2.414-.062 1.37-.076 1.782-.076 5.253s.014 3.882.076 5.253c.058 1.268.27 1.956.448 2.414.236.607.517 1.04.972 1.495.455.455.888.736 1.495.972.458.178 1.146.39 2.414.448 1.37.062 1.782.076 5.253.076s3.882-.014 5.253-.076c1.268-.058 1.956-.27 2.414-.448a4.028 4.028 0 0 0 1.495-.972c.455-.455.736-.888.972-1.495.178-.458.39-1.146.448-2.414.062-1.37.076-1.782.076-5.253s-.014-3.882-.076-5.253c-.058-1.268-.27-1.956-.448-2.414a4.028 4.028 0 0 0-.972-1.495 4.028 4.028 0 0 0-1.495-.972c-.458-.178-1.146-.39-2.414-.448-1.37-.062-1.782-.076-5.253-.076zm8.5 3.719a1.56 1.56 0 1 1-3.12 0 1.56 1.56 0 0 1 3.12 0zm-8.5.263a6.676 6.676 0 1 1 0 13.352 6.676 6.676 0 0 1 0-13.352zm0 11.01a4.333 4.333 0 1 0 0-8.667 4.333 4.333 0 0 0 0 8.666z" id="aoa"/></defs><g fill="none" fill-rule="evenodd"><mask id="aob" fill="#fff"><use xlink:href="#aoa"/></mask><use fill="#000" xlink:href="#aoa"/><g mask="url(#aob)" fill="#FFF"><path d="M0 0h26v26H0z"/></g></g></svg><view id="icon__menu-closed" viewBox="1052.4 484.4 62 62"/><svg width="62" height="62" viewBox="-1 -1 62 62" x="1052.4" y="484.4" xmlns="http://www.w3.org/2000/svg"><g fill="none" fill-rule="evenodd"><path fill="#1CABE2" d="M0 0h60v60H0z"/><rect fill="#FFF" transform="rotate(-45 30 29.643)" x="18" y="28" width="24" height="3.286" rx="1.643"/><rect fill="#FFF" transform="rotate(45 30 29.643)" x="18" y="28" width="24" height="3.286" rx="1.643"/></g></svg><view id="icon__menu-hamburger" viewBox="990.4 484.4 62 62"/><svg width="62" height="62" viewBox="-1 -1 62 62" x="990.4" y="484.4" xmlns="http://www.w3.org/2000/svg"><g fill="none" fill-rule="evenodd"><path fill="#1CABE2" d="M0 0h60v60H0z"/><rect fill="#FFF" x="18" y="20" width="24" height="3.286" rx="1.643"/><rect fill="#FFF" x="18" y="29" width="24" height="3.286" rx="1.643"/><rect fill="#FFF" x="18" y="37" width="24" height="3.286" rx="1.643"/></g></svg><view id="icon__rss" viewBox="889.4 574.4 58.69 58.69"/><svg width="58.69" height="58.69" viewBox="-1 -1 58.69 58.69" x="889.4" y="574.4" xmlns="http://www.w3.org/2000/svg"><path d="M3.428 31.085c6.19 0 12.009 2.418 16.382 6.816 4.381 4.398 6.793 10.256 6.793 16.492h9.539c0-18.113-14.676-32.848-32.714-32.848v9.54zm.015-16.911c22.061 0 40.01 18.047 40.01 40.231h9.539c0-27.445-22.229-49.77-49.549-49.77v9.539zm13.191 33.567a6.608 6.608 0 0 1-13.214 0 6.608 6.608 0 0 1 13.214 0z"/></svg><view id="icon__share" viewBox="1114.4 484.4 56 62"/><svg version="1.1" id="asLayer_1" x="1114.4" y="484.4" viewBox="-186 111.5 56 62" xml:space="preserve" width="56" height="62" xmlns="http://www.w3.org/2000/svg"><path d="M-148.7 126.8c-2.6 0-4.7 2.1-4.7 4.7 0 .4.1.7.2 1.1l-11 6.5c-.9-.8-2-1.3-3.2-1.3-2.6 0-4.7 2.1-4.7 4.7s2.1 4.7 4.7 4.7c1.3 0 2.3-.5 3.2-1.3l11.2 6.5c-.1.3-.1.7-.1 1 0 2.6 2 4.6 4.6 4.6 2.5 0 4.6-2 4.6-4.6 0-2.6-2-4.6-4.6-4.6-1.2 0-2.3.5-3.1 1.2l-11.2-6.5c.1-.4.2-.7.2-1.1s-.1-.7-.2-1.1l11-6.5c.9.8 2 1.3 3.2 1.3 2.6 0 4.7-2.1 4.7-4.7.1-2.6-2.2-4.6-4.8-4.6" fill="#fff"/></svg><view id="icon__tumblr" viewBox="0 0 614 794"/><svg viewBox="-1 -1 614 794" width="614" height="794" xmlns="http://www.w3.org/2000/svg"><path d="M424 571c9.9-.1 19.8-1.4 29.4-3.8V399.4h127.1V253h-78.1v81H375.3v185c.7 46.6 27.1 52 48.7 52zm30-490.5h-78.1v107.1H454V80.5zm113.7 538.2c-15.7 8.5-32.8 14.1-50.5 16.6l13 38.5c-23.3 30.8-81.4 51.9-134.5 52.8h-5.4c-37 0-67.8-6.5-93.3-17.4 29.8 45.6 82.9 82.7 171.4 82.7h5.4c53.1-.9 111.2-22.1 134.5-52.8l-40.6-120.4z"/><path d="M366.4 741.4c74.2 0 147.7-26.4 172-58.4l4.9-6.4-46-136.3c-.4-1.3-1.6-2.1-2.9-2.1H391.6c-1.4 0-2.6-.9-3-2.3-1.3-5.6-2-11.3-2-17V352.3c0-1.7 1.4-3.1 3.1-3.1h120.9c1.7 0 3.1-1.4 3.1-3.1V175.5c0-1.7-1.4-3.1-3.1-3.1H390.2c-1.7 0-3.1-1.4-3.1-3.1V3.1c0-1.7-1.4-3.1-3.1-3.1H172.9c-18.1.3-33.1 14-35.1 31.9C127.3 117.8 88 169.2 14 193.9l-8.2 2.8c-1.3.4-2.2 1.6-2.2 2.9V346c0 1.7 1.4 3.1 3.1 3.1h75.5v180.4c.1 144 99.8 211.9 284.2 211.9zm141.3-69.6c-23.1 22.3-70.6 38.8-116.2 39.6h-5.1c-149.8 0-189.8-114.3-189.8-181.9V321.9c0-1.7-1.4-3.1-3.1-3.1H121c-1.7 0-3.1-1.4-3.1-3.1v-94.5c0-1.3.8-2.4 2-2.8 77.5-30.1 120.6-90 132-182.6.6-5.1 4.9-5.3 4.9-5.3h96.7c1.7 0 3.1 1.4 3.1 3.1v166.2c0 1.7 1.4 3.1 3.1 3.1h120.4c1.7 0 3.1 1.4 3.1 3.1v109.8c0 1.7-1.4 3.1-3.1 3.1H359.3c-1.7 0-3.1 1.4-3.1 3.1v197.3c.7 44.4 22.2 66.9 63.9 66.9 16.8 0 36-3.9 53.6-10.6 1.6-.6 3.3.1 4 1.7 0 .1 0 .1.1.2l30.8 91.1c.3 1.1 0 2.4-.9 3.2z"/><path d="M82.3 349.2h84v48.5h-84z"/></svg><view id="icon__twitter" viewBox="614 484.4 275.4 224.2"/><svg viewBox="-1 -1 275.4 224.2" width="275.4" height="224.2" x="614" y="484.4" xmlns="http://www.w3.org/2000/svg"><path d="M273.4 26.3c-10.1 4.5-20.9 7.5-32.2 8.8 11.6-6.9 20.5-17.9 24.7-31-10.9 6.4-22.9 11.1-35.7 13.6A55.919 55.919 0 0 0 189.3 0c-31 0-56.1 25.1-56.1 56.1 0 4.4.5 8.7 1.5 12.8C88 66.5 46.7 44.2 19 10.3c-4.8 8.3-7.6 17.9-7.6 28.2 0 19.5 9.9 36.6 25 46.7-9.2-.3-17.8-2.8-25.4-7v.7c0 27.2 19.3 49.8 45 55-4.7 1.3-9.7 2-14.8 2-3.6 0-7.1-.4-10.6-1 7.1 22.3 27.9 38.5 52.4 39-19.2 15-43.4 24-69.7 24-4.5 0-9-.3-13.4-.8 24.8 15.9 54.3 25.2 86 25.2 103.2 0 159.6-85.5 159.6-159.6 0-2.4-.1-4.9-.2-7.3 11.1-8 20.6-17.9 28.1-29.1z"/></svg><view id="icon__warning" viewBox="889.4 484.4 101 90"/><svg width="101" height="90" viewBox="-1 -1 101 90" x="889.4" y="484.4" xmlns="http://www.w3.org/2000/svg"><defs><filter x="-20.9%" y="-24.3%" width="143%" height="148.5%" filterUnits="objectBoundingBox" id="ava"><feOffset in="SourceAlpha" result="shadowOffsetOuter1"/><feGaussianBlur stdDeviation="5.5" in="shadowOffsetOuter1" result="shadowBlurOuter1"/><feColorMatrix values="0 0 0 0 0 0 0 0 0 0 0 0 0 0 0 0 0 0 0.4 0" in="shadowBlurOuter1" result="shadowMatrixOuter1"/><feMerge><feMergeNode in="shadowMatrixOuter1"/><feMergeNode in="SourceGraphic"/></feMerge></filter><path d="M0 68h79L39.5 0 0 68zm43.09-10.737h-7.18v-7.158h7.18v7.158zm0-14.316h-7.18V28.632h7.18v14.315z" id="avb"/></defs><g filter="url(#ava)" transform="translate(10 9)" fill="none" fill-rule="evenodd"><mask id="avc" fill="#fff"><use xlink:href="#avb"/></mask><use fill="#000" fill-rule="nonzero" xlink:href="#avb"/><g mask="url(#avc)" fill="#FFF"><path d="M0-4h80v80H0z"/></g></g></svg><view id="icon__youtube" viewBox="614 0 614 432.4"/><svg viewBox="-1 179.8 614 432.4" width="614" height="432.4" x="614" xmlns="http://www.w3.org/2000/svg"><path d="M605.9 273.6s-6-42.2-24.3-60.8c-23.2-24.4-49.4-24.5-61.3-25.9-85.6-6.2-214.1-6.2-214.1-6.2h-.2s-128.5 0-214.1 6.2c-12 1.4-38 1.6-61.3 25.9-18.3 18.6-24.3 60.8-24.3 60.8S0 323.1 0 372.7v46.4c0 49.6 6.1 99 6.1 99s6 42.2 24.3 60.8c23.3 24.4 53.9 23.6 67.5 26.2 49 4.7 208.1 6.2 208.1 6.2s128.6-.2 214.3-6.4c12-1.4 38-1.6 61.3-25.9 18.3-18.6 24.3-60.8 24.3-60.8s6.1-49.6 6.1-99v-46.4c0-49.7-6.1-99.2-6.1-99.2zM242.8 475.4v-172l165.4 86.3-165.4 85.7z"/></svg><view id="icon_content_type_blog" viewBox="1151.4 546.4 26 26"/><svg version="1.1" id="axLayer_1" x="1151.4" y="546.4" viewBox="-1 -1 26 26" xml:space="preserve" width="26" height="26" xmlns="http://www.w3.org/2000/svg"><defs><path id="axSVGID_1_" d="M0 0h24v24H0z"/></defs><clipPath id="axSVGID_2_"><use xlink:href="#axSVGID_1_" overflow="visible"/></clipPath><path d="M1 6v14.6c0 .2.2.5.5.5h.2c1.4-.8 3.1-1 4.8-1 1.7 0 4.1.6 5.5 1.5 1.4-1.1 3.6-1.5 5.5-1.5 1.4 0 3.4.5 4.8 1.1h.2c.2 0 .5-.2.5-.5V6c-1.5-1.1-3.5-1.5-5.5-1.5S13.4 4.9 12 6c-1.4-1.1-3.6-1.5-5.5-1.5-1.2 0-2.4.2-3.5.5-.8.2-1.4.6-2 1zm2 1c1.1-.3 2.3-.5 3.5-.5 1.7 0 4.1.7 5.5 1.5v11.5c-1.4-.9-3.8-1.5-5.5-1.5-1.2 0-2.4.1-3.5.5V7z" clip-path="url(#axSVGID_2_)"/></svg><view id="icon_content_type_broadcast" viewBox="1156.09 574.4 26 26"/><svg height="26" width="26" viewBox="-1 -1 26 26" x="1156.09" y="574.4" xmlns="http://www.w3.org/2000/svg"><path d="M0 0h24v24H0z" fill="none"/><path d="M12 11c-1.1 0-2 .9-2 2s.9 2 2 2 2-.9 2-2-.9-2-2-2zm6 2c0-3.31-2.69-6-6-6s-6 2.69-6 6c0 2.22 1.21 4.15 3 5.19l1-1.74c-1.19-.7-2-1.97-2-3.45 0-2.21 1.79-4 4-4s4 1.79 4 4c0 1.48-.81 2.75-2 3.45l1 1.74c1.79-1.04 3-2.97 3-5.19zM12 3C6.48 3 2 7.48 2 13c0 3.7 2.01 6.92 4.99 8.65l1-1.73C5.61 18.53 4 15.96 4 13c0-4.42 3.58-8 8-8s8 3.58 8 8c0 2.96-1.61 5.53-4 6.92l1 1.73c2.99-1.73 5-4.95 5-8.65 0-5.52-4.48-10-10-10z"/></svg><view id="icon_content_type_campaign" viewBox="948.09 574.4 26 26"/><svg height="26" width="26" viewBox="-1 -1 26 26" x="948.09" y="574.4" xmlns="http://www.w3.org/2000/svg"><path d="M0 0h24v24H0z" fill="none"/><path d="M14.4 6L14 4H5v17h2v-7h5.6l.4 2h7V6z"/></svg><view id="icon_content_type_emergency" viewBox="974.09 574.4 26 26"/><svg viewBox="-1 -1 26 26" width="26" height="26" x="974.09" y="574.4" xmlns="http://www.w3.org/2000/svg"><path d="M11 15h2v2h-2v-2zm0-8h2v6h-2V7zm1-5C6.5 2 2 6.5 2 12s4.5 10 10 10 10-4.5 10-10S17.5 2 12 2zm0 18c-4.4 0-8-3.6-8-8s3.6-8 8-8 8 3.6 8 8-3.6 8-8 8z"/></svg><view id="icon_content_type_film" viewBox="1000.09 574.4 26 26"/><svg height="26" width="26" viewBox="-1 -1 26 26" x="1000.09" y="574.4" xmlns="http://www.w3.org/2000/svg"><path d="M0 0h24v24H0z" fill="none"/><path d="M17 10.5V7c0-.55-.45-1-1-1H4c-.55 0-1 .45-1 1v10c0 .55.45 1 1 1h12c.55 0 1-.45 1-1v-3.5l4 4v-11l-4 4z"/></svg><view id="icon_content_type_images" viewBox="1026.09 574.4 26 26"/><svg height="26" width="26" viewBox="-1 -1 26 26" x="1026.09" y="574.4" xmlns="http://www.w3.org/2000/svg"><circle cx="12" cy="12" r="3.2"/><path d="M9 2L7.17 4H4c-1.1 0-2 .9-2 2v12c0 1.1.9 2 2 2h16c1.1 0 2-.9 2-2V6c0-1.1-.9-2-2-2h-3.17L15 2H9zm3 15c-2.76 0-5-2.24-5-5s2.24-5 5-5 5 2.24 5 5-2.24 5-5 5z"/><path d="M0 0h24v24H0z" fill="none"/></svg><view id="icon_content_type_initiatives" viewBox="1052.09 574.4 26 26"/><svg height="26" width="26" viewBox="-1 -1 26 26" x="1052.09" y="574.4" xmlns="http://www.w3.org/2000/svg"><path d="M0 0h24v24H0z" fill="none"/><path d="M5 15H3v4c0 1.1.9 2 2 2h4v-2H5v-4zM5 5h4V3H5c-1.1 0-2 .9-2 2v4h2V5zm14-2h-4v2h4v4h2V5c0-1.1-.9-2-2-2zm0 16h-4v2h4c1.1 0 2-.9 2-2v-4h-2v4zM12 9c-1.66 0-3 1.34-3 3s1.34 3 3 3 3-1.34 3-3-1.34-3-3-3z"/></svg><view id="icon_content_type_job" viewBox="1078.09 574.4 26 26"/><svg height="26" width="26" viewBox="-1 -1 26 26" x="1078.09" y="574.4" xmlns="http://www.w3.org/2000/svg"><path d="M0 0h24v24H0z" fill="none"/><path d="M20 6h-4V4c0-1.11-.89-2-2-2h-4c-1.11 0-2 .89-2 2v2H4c-1.11 0-1.99.89-1.99 2L2 19c0 1.11.89 2 2 2h16c1.11 0 2-.89 2-2V8c0-1.11-.89-2-2-2zm-6 0h-4V4h4v2z"/></svg><view id="icon_content_type_journalistContent" viewBox="1104.09 574.4 26 26"/><svg height="26" width="26" viewBox="-1 -1 26 26" x="1104.09" y="574.4" xmlns="http://www.w3.org/2000/svg"><path d="M0 0h24v24H0z" fill="none"/><path d="M14 2H6c-1.1 0-1.99.9-1.99 2L4 20c0 1.1.89 2 1.99 2H18c1.1 0 2-.9 2-2V8l-6-6zm2 16H8v-2h8v2zm0-4H8v-2h8v2zm-3-5V3.5L18.5 9H13z"/></svg><view id="icon_content_type_link" viewBox="1130.09 574.4 26 26"/><svg height="26" width="26" viewBox="-1 -1 26 26" x="1130.09" y="574.4" xmlns="http://www.w3.org/2000/svg"><path d="M0 0h24v24H0z" fill="none"/><path d="M19 19H5V5h7V3H5a2 2 0 0 0-2 2v14a2 2 0 0 0 2 2h14c1.1 0 2-.9 2-2v-7h-2v7zM14 3v2h3.59l-9.83 9.83 1.41 1.41L19 6.41V10h2V3h-7z"/></svg><view id="icon_content_type_page" viewBox="1203.4 546.4 24 20"/><svg viewBox="-1 -1 24 20" width="24" height="20" x="1203.4" y="546.4" xmlns="http://www.w3.org/2000/svg"><path d="M20 0H2C.9 0 0 .9 0 2v12c0 1.1.9 2 2 2h5v2h8v-2h5c1.1 0 2-.9 2-2V2c0-1.1-.9-2-2-2zm0 14H2V2h18v12zm-2-9H4v2h14V5zm0 4H4v2h14V9z"/></svg><view id="icon_content_type_report" viewBox="1177.4 546.4 26 26"/><svg height="26" width="26" viewBox="-1 -1 26 26" x="1177.4" y="546.4" xmlns="http://www.w3.org/2000/svg"><path d="M0 0h24v24H0z" fill="none"/><path d="M19 3h-4.18C14.4 1.84 13.3 1 12 1c-1.3 0-2.4.84-2.82 2H5c-1.1 0-2 .9-2 2v14c0 1.1.9 2 2 2h14c1.1 0 2-.9 2-2V5c0-1.1-.9-2-2-2zm-7 0c.55 0 1 .45 1 1s-.45 1-1 1-1-.45-1-1 .45-1 1-1zm2 14H7v-2h7v2zm3-4H7v-2h10v2zm0-4H7V7h10v2z"/></svg><view id="icon_content_type_statistics" viewBox="1099.4 546.4 26 26"/><svg height="26" width="26" viewBox="-1 -1 26 26" x="1099.4" y="546.4" xmlns="http://www.w3.org/2000/svg"><path d="M19 3H5c-1.1 0-2 .9-2 2v14c0 1.1.9 2 2 2h14c1.1 0 2-.9 2-2V5c0-1.1-.9-2-2-2zM9 17H7v-7h2v7zm4 0h-2V7h2v10zm4 0h-2v-4h2v4z"/><path d="M0 0h24v24H0z" fill="none"/></svg><view id="icon_content_type_writing" viewBox="1125.4 546.4 26 26"/><svg height="26" width="26" viewBox="-1 -1 26 26" x="1125.4" y="546.4" xmlns="http://www.w3.org/2000/svg"><defs><path d="M0 0h24v24H0V0z" id="bka"/></defs><clipPath id="bkb"><use overflow="visible" xlink:href="#bka"/></clipPath><path clip-path="url(#bkb)" d="M21 5c-1.11-.35-2.33-.5-3.5-.5-1.95 0-4.05.4-5.5 1.5-1.45-1.1-3.55-1.5-5.5-1.5S2.45 4.9 1 6v14.65c0 .25.25.5.5.5.1 0 .15-.05.25-.05C3.1 20.45 5.05 20 6.5 20c1.95 0 4.05.4 5.5 1.5 1.35-.85 3.8-1.5 5.5-1.5 1.65 0 3.35.3 4.75 1.05.1.05.15.05.25.05.25 0 .5-.25.5-.5V6c-.6-.45-1.25-.75-2-1zm0 13.5c-1.1-.35-2.3-.5-3.5-.5-1.7 0-4.15.65-5.5 1.5V8c1.35-.85 3.8-1.5 5.5-1.5 1.2 0 2.4.15 3.5.5v11.5z"/></svg><view id="icon_facet_check" viewBox="1170.4 530.4 16 16"/><svg version="1.1" id="blLayer_1" x="1170.4" y="530.4" viewBox="-1 -1 16 16" xml:space="preserve" width="16" height="16" xmlns="http://www.w3.org/2000/svg"><path d="M0 0v14h14V0H0zm5.5 10.7L2 7.6l1.3-1.5 2 1.9 5-5 1.4 1.4-6.2 6.3z" fill-rule="evenodd" clip-rule="evenodd" fill="#1cabe2"/></svg><view id="logo-unicef" viewBox="1003 432.4 145 37"/><svg version="1.1" id="bmLayer_1" x="1003" y="432.4" viewBox="-142 123.5 145 37" xml:space="preserve" width="145" height="37" xmlns="http://www.w3.org/2000/svg"><style>.bmst0{fill:#fff}</style><g id="bmSymbols"><g id="bm_x26AA_atom_x2F_logo_x5F_big"><g id="bmGroup-2"><g id="bmlogo" transform="translate(103.542 .143)"><path id="bmShape" class="bmst0" d="M-121.3 124.7c-7.4 0-13.3 6-13.3 13.3 0 7.4 6 13.3 13.3 13.3 7.4 0 13.3-6 13.3-13.3 0-7.3-6-13.3-13.3-13.3zm10.4 5.9c-.7.5-1.4.9-2.1 1.2-.4-.9-1-1.7-1.6-2.5.5-.3 1.1-.7 1.5-1.1.8.8 1.6 1.5 2.2 2.4zm-5.6-4.4c1.1.4 2.1 1 3 1.7-.5.4-1 .7-1.5 1-.6-.8-1.4-1.4-2.2-2l.7-.7zm1 3c-.7.4-1.5.7-2.2.9-.3-.8-.7-1.5-1.1-2.2.4-.2.8-.4 1.2-.7.7.7 1.5 1.3 2.1 2zm-1.6-3.2l-.6.6c-.7-.5-1.5-.9-2.2-1.2 1 .1 1.9.3 2.8.6zm-1 1c-.3.2-.7.4-1 .6-.4-.6-.8-1.2-1.3-1.8.8.3 1.5.7 2.3 1.2zm-2.9-1.2c.5.6 1 1.2 1.4 1.9-.4.1-.9.2-1.4.2v-2.1zm0 2.7c.6 0 1.1-.1 1.7-.3.4.7.8 1.4 1.1 2.1-.9.2-1.8.4-2.8.4v-2.2zm-.6-2.6v2.1c-.5 0-.9-.1-1.4-.2.5-.7.9-1.3 1.4-1.9zm-1.9 1.6c-.4-.1-.7-.4-1-.6.7-.5 1.5-.9 2.3-1.2-.5.6-.9 1.2-1.3 1.8zm.8-2.1c-.8.4-1.5.8-2.2 1.2l-.6-.6c.9-.3 1.8-.5 2.8-.6zm9.1 22.8c-1.8-1-1.8-2.3-1.7-2.8.1-.5.4-.3.7-.3 1.2 0 2.4-.4 3.9-1.9 1.7-1.8 2.2-5.6-.4-8.1-2.8-2.7-5.8-2.2-7.7.2-.4.5-1.4.9-2.2.8-1.2 0-.5.9-.5 1.1 0 .2-.2.4-.3.3-.4-.1-.2.5-.2.7s-.2.3-.2.3c-.5 0-.4.5-.4.6 0 .1 0 .4-.2.4-.2.1-.4.5-.4.8 0 .6.5 1 1.4 1.6.9.6 1 1.2 1 1.7 0 .4.1 1.1.2 1.6.2.6.2 1.6-1 1.6-1.5.1-4.1 1.2-4.3 1.3-.8.3-1.9.4-2.7.2-.5-.3-.9-.7-1.3-1.1-.2-.6.1-1.2.4-1.6.5.5 1.2.5 1.6.5.4 0 2.4-.3 2.7-.4.3-.1.4-.1.6 0 .7.3 1.8.4 2.2-1.1.4-1.5-.6-1.1-.7-1-.1.1-.3 0-.2-.1.2-.4-.1-.3-.2-.4-.4 0-.9.4-1.1.5-.2.1-.4.1-.4.1-.5-.3-2.1.1-2.6-.8 0-.2-.4-3.8-.6-4.4 0-.1-.1-.4.1-.6.4-.6 1.5 0 2.1 0 .7 0 .9-.3 1.1-.6.2-.2.3-.1.4-.2.1-.1 0-.2.1-.4 0-.1.1 0 .2-.1s0-.4 0-.4c.2-.3.7-.1.4-.8-.2-.4.1-.8.3-1.1.4-.5 1.7-2.4-.7-4.4-2.3-1.9-4.6-1.8-6.2-.1-1.5 1.6-.7 4-.6 4.6.1.6-.3 1.2-.8 1.5-.4.2-1.4.8-2.1 1.4.1-5.1 3.2-9.6 8-11.6.2.2.4.5.7.7-.5.4-1.7 1.4-1.7 1.4s.1 0 .3.1c.1 0 .3.1.3.1s1-.9 1.5-1.2c.4.3.8.5 1.2.7-.2.4-.8 1.5-.8 1.5l.2.2c.1.1.2.1.2.1s.6-1.2.9-1.6c.5.2 1.1.3 1.6.3v2.2c-.3 0-1.1 0-1.4-.1h-.2l.1.2c.1.1.1.2.2.4h1.3v4h.6v-.9c.8 0 1.5-.1 2.3-.2l.7-.6h-.4c-.9.1-1.6.2-2.3.2h-.4v-2.5c1 0 2-.2 3-.4.3.6.8 2.2.8 2.2l.5-.2s-.5-1.6-.8-2.2c.8-.2 1.6-.6 2.4-1 .6.8 1.1 1.6 1.6 2.5-.4.2-1.1.4-1.1.4.6.1 1 .2 1 .2s.2-.1.3-.1c0 .1.1.4.1.4l.7.3-.1-.2s-.2-.6-.3-.7c.7-.4 1.5-.8 2.2-1.3 1.4 2.1 2.1 4.5 2.1 7 .1 4.6-1.9 8.3-5 10.6z"/><g id="bmGroup" transform="translate(0 3.571)"><path id="bmShape_1_" class="bmst0" d="M-135.9 124.7l-.2.2c-.8.7-2.6 2.5-2.3 4.5v.1l.1.4.2-.2c1.1-1 1.9-2.7 2.2-4.6l.1-.5-.1.1z"/><path id="bmShape_2_" class="bmst0" d="M-139.5 128.2l-.1.2c-.1.3-.4 1-.5 2-.2 1.3-.1 3.2 1 4.6l.1.2.1.2.2-.9c.2-1.5-.1-4.6-.6-6.1l-.2-.5v.3z"/><path id="bmShape_3_" class="bmst0" d="M-140.8 133.6v.2c-.1 1.4 0 4.7 2.7 6.4l.3.2v-.4c0-1.2-1.5-5-2.6-6.4l-.3-.4-.1.4z"/><path id="bmShape_4_" class="bmst0" d="M-140.4 139.5v.2c.4 1.9 2.2 5 5 5.9l.4.1-.1-.4c-.5-1.4-3.2-4.8-5-5.9l-.4-.2.1.3z"/><path id="bmShape_5_" class="bmst0" d="M-134.7 127.6l-.2.1c-2.1 1.3-3.1 2.8-3 4.7v.4l.3-.2c1.1-.9 2.5-3.3 3-4.7l.1-.5-.2.2z"/><path id="bmShape_6_" class="bmst0" d="M-136 131.7l-.1.1c-.5.5-2.2 2.4-2.1 4.6 0 .4.1.7.2 1.1l.1.4.2-.3c.8-1.1 1.9-4.2 1.9-5.6v-.4l-.2.1z"/><path id="bmShape_7_" class="bmst0" d="M-135.9 135.7l-.1.2c-.9 1.3-1.3 2.6-1.3 3.9 0 .9.3 1.8.9 2.6l.2.3.1-.3c.4-.7.7-3 .6-4.8 0-.6-.1-1.2-.2-1.5l-.1-.4h-.1z"/><path id="bmShape_8_" class="bmst0" d="M-134.9 139.9l-.1.2c-.2.8-.4 1.6-.4 2.4 0 1.8.8 3.1 2.3 4.1l.2.1.1-.4v-.3c0-1.4-1.1-5-1.9-6.1l-.2-.3v.3z"/><path id="bmShape_9_" class="bmst0" d="M-137.8 145.5l.1.2c1.1 1.9 3 4.3 6.6 3.7h.3l-.2-.2c-.7-1-5-3.4-6.5-3.7l-.4-.1.1.1z"/><path id="bmShape_10_" class="bmst0" d="M-132.5 150.3l-.6.1.5.2c2.2.9 5.1 1.2 6.7.6.6-.2 1-.5 1.5-1 2.9.3 5.6 2.7 7.2 4.7l.1.1h.1c.2-.1.5-.3.6-.4l.1-.1-.1-.1c-1.6-2.1-4.2-3.5-4.4-3.5-2.2-1.2-6.3-2.1-11.7-.6z"/><path id="bmShape_11_" class="bmst0" d="M-132.4 144.2v.2c.3 2.1 1.2 4.9 4.8 4.6h.2l-.1-.2c-.2-1-3.5-3.8-4.7-4.6l-.4-.2.2.2z"/></g><g id="bmGroup_1_" transform="translate(14.639 3.571)"><path id="bmShape_12_" class="bmst0" d="M-121.6 124.5l.1.5c.3 2 1.1 3.6 2.2 4.6l.2.2.1-.4v-.1c.3-2-1.5-3.8-2.3-4.5l-.2-.2-.1-.1z"/><path id="bmShape_13_" class="bmst0" d="M-117.8 127.9l-.2.5c-.5 1.4-.8 4.6-.6 6.1l.2.9.1-.2.1-.2c1.1-1.4 1.2-3.3 1-4.6-.1-.9-.4-1.6-.5-2l-.1-.2v-.3z"/><path id="bmShape_14_" class="bmst0" d="M-116.4 133.4l-.3.4c-1.1 1.4-2.6 5.1-2.6 6.4v.4l.3-.2c2.7-1.8 2.7-5.1 2.7-6.4v-.2l-.1-.4z"/><path id="bmShape_15_" class="bmst0" d="M-116.9 139.3l-.4.2c-1.7 1.1-4.4 4.4-5 5.9l-.1.4.4-.1c2.8-.9 4.6-4 5-5.9v-.2l.1-.3z"/><path id="bmShape_16_" class="bmst0" d="M-122.6 127.4l.1.5c.4 1.4 1.7 3.8 2.9 4.7l.3.2v-.4c.1-1.9-.8-3.5-2.9-4.8l-.2-.1-.2-.1z"/><path id="bmShape_17_" class="bmst0" d="M-121.4 131.6v.4c-.1 1.4 1 4.5 1.9 5.6l.2.3.1-.4c.1-.4.2-.8.2-1.1.1-2.3-1.6-4.1-2.1-4.6l-.1-.1-.2-.1z"/><path id="bmShape_18_" class="bmst0" d="M-121.5 135.5l-.1.4c-.1.4-.2.9-.2 1.5 0 1.8.2 4.1.6 4.8l.1.3.2-.3c.5-.8.8-1.7.9-2.6 0-1.2-.4-2.5-1.3-3.9l-.1-.2h-.1z"/><path id="bmShape_19_" class="bmst0" d="M-122.4 139.7l-.2.3c-.8 1.1-1.9 4.7-1.9 6.1v.3l.1.4.2-.1c1.5-1 2.3-2.3 2.3-4.1 0-.8-.1-1.6-.4-2.4l-.1-.2v-.3z"/><path id="bmShape_20_" class="bmst0" d="M-119.3 145.3l-.4.1c-1.5.2-5.9 2.7-6.5 3.7l-.2.2h.3c3.6.6 5.5-1.8 6.6-3.7l.1-.2.1-.1z"/><path id="bmShape_21_" class="bmst0" d="M-136.5 150.8c-.1.1-2.7 1.4-4.4 3.5l-.1.1.1.1c.1.1.4.3.6.4h.1l.1-.1c1.6-2 4.3-4.4 7.2-4.7.5.5.8.8 1.5 1 1.6.6 4.5.3 6.7-.6l.5-.2-.6-.1c-5.3-1.4-9.4-.5-11.7.6z"/><path id="bmShape_22_" class="bmst0" d="M-124.8 144.1l-.4.2c-1.1.8-4.5 3.6-4.7 4.6l-.1.2h.2c3.6.3 4.5-2.5 4.8-4.6v-.2l.2-.2z"/></g></g><g id="bmlogo_1_" transform="translate(0 .143)"><path id="bmShape_23_" class="bmst0" d="M-98.7 125.7h4.5v4.1h-4.5v-4.1zm.3 29.1v-20.2h3.8v20.2h-3.8z"/><path id="bmShape_24_" class="bmst0" d="M-127.3 134.6h3.8v20.2h-3.7v-3h-.1c-1.5 2.5-4.1 3.6-6.9 3.6-4.2 0-6.6-3.2-6.6-7.3v-13.5h3.8v12c0 3.5.8 6.1 4.5 6.1 1.6 0 3.7-.8 4.5-2.9.7-1.9.7-4.3.7-4.8v-10.4z"/><path id="bmShape_25_" class="bmst0" d="M-115.8 137.5c1.4-2.5 4.2-3.6 6.2-3.6 1.4 0 7.6.4 7.6 6.9v14h-3.8v-12.7c0-3.4-1.4-5.1-4.6-5.1 0 0-2.1-.1-3.7 1.5-.6.6-1.6 1.5-1.6 5.4v11h-3.8v-20.2h3.7v2.8z"/><path id="bmShape_26_" class="bmst0" d="M-78.5 141.1c-.2-2.5-1.4-4.3-4.1-4.3-3.6 0-5 3.1-5 7.9 0 4.7 1.4 7.9 5 7.9 2.5 0 4.1-1.6 4.3-4.5h3.8c-.3 4.5-3.7 7.3-8.1 7.3-6.4 0-9-4.6-9-10.5s3-10.8 9.3-10.8c4.2 0 7.4 2.7 7.6 7h-3.8z"/><path id="bmShape_27_" class="bmst0" d="M-68.8 145.4c-.3 3.5 1.2 7.2 5 7.2 3 0 4.4-1.1 4.9-4.1h4c-.6 4.6-4.1 6.9-8.9 6.9-6.4 0-9-4.6-9-10.5s3-10.8 9.3-10.8c6 .1 8.9 3.9 8.9 9.5v1.9l-14.2-.1zm10.1-2.7c.1-3.4-1.4-6-5.1-6-3.2 0-5 2.7-5 6h10.1z"/><path id="bmShape_28_" class="bmst0" d="M-50.4 154.7v-17.5h-3.5v-2.6h3.5v-4.3c.1-4.4 3.4-5.6 6.3-5.6.9 0 1.8.2 2.7.4v3.2c-.6 0-1.3-.1-1.9-.1-2.1 0-3.4.6-3.3 2.8v3.7h4.6v2.6h-4.6v17.5h-3.8v-.1z"/></g></g></g></g></svg><view id="logo-unicef-global" viewBox="614 432.4 389 52"/><svg width="389" height="52" viewBox="-1 -1 389 52" x="614" y="432.4" xmlns="http://www.w3.org/2000/svg"><g fill="#FFF" fill-rule="evenodd"><path d="M123.215 7.429c-7.355 0-13.318 5.964-13.318 13.321 0 7.357 5.963 13.321 13.318 13.321 7.355 0 13.318-5.964 13.318-13.321 0-7.357-5.963-13.321-13.318-13.321zm10.39 5.892c-.678.465-1.392.893-2.142 1.25a12.406 12.406 0 0 0-1.607-2.5 11.997 11.997 0 0 0 1.535-1.107 10.66 10.66 0 0 1 2.214 2.357zM128 8.893c1.07.428 2.07 1 2.999 1.714-.464.393-.964.714-1.464 1.036a14.712 14.712 0 0 0-2.178-2.036c.214-.214.428-.464.643-.714zm1.035 3.036a10.3 10.3 0 0 1-2.25.928c-.32-.75-.714-1.464-1.106-2.178.428-.179.82-.429 1.214-.715.785.572 1.5 1.215 2.142 1.965zm-1.571-3.25a4.874 4.874 0 0 1-.607.607c-.714-.5-1.464-.893-2.25-1.25 1 .107 1.929.321 2.857.643zm-1.035.964a5.858 5.858 0 0 1-1.036.571 20.487 20.487 0 0 0-1.285-1.785c.82.321 1.57.75 2.32 1.214zM123.5 8.5c.5.607.964 1.214 1.392 1.893-.428.143-.892.214-1.392.25V8.5zm0 2.679a6.646 6.646 0 0 0 1.678-.322c.393.679.785 1.393 1.107 2.107-.893.25-1.821.357-2.785.393V11.18zm-.571-2.643v2.107a5.693 5.693 0 0 1-1.357-.25 22.23 22.23 0 0 1 1.357-1.857zm-1.893 1.678a5.858 5.858 0 0 1-1.035-.571 14.01 14.01 0 0 1 2.285-1.214 31.85 31.85 0 0 0-1.25 1.785zm.786-2.178c-.786.357-1.536.75-2.25 1.25-.214-.179-.392-.393-.607-.607a13.214 13.214 0 0 1 2.857-.643zm9.14 22.893c-1.785-.965-1.821-2.322-1.714-2.822.107-.5.429-.286.679-.286 1.178 0 2.392-.357 3.891-1.892 1.714-1.75 2.25-5.608-.392-8.108-2.821-2.714-5.82-2.25-7.748.215-.393.5-1.357.857-2.214.821-1.25-.036-.464.929-.464 1.143 0 .214-.179.357-.286.321-.428-.107-.25.5-.25.679 0 .179-.178.286-.25.286-.535 0-.392.464-.357.607 0 .107-.035.357-.214.428-.178.108-.357.5-.357.822 0 .571.536.964 1.393 1.607.856.643.964 1.25 1 1.714 0 .429.07 1.143.25 1.607.25.572.213 1.608-1 1.643-1.464.072-4.07 1.215-4.285 1.322-.821.285-1.928.393-2.75.178a12.383 12.383 0 0 1-1.32-1.071c-.179-.572.143-1.214.428-1.643.5.5 1.214.464 1.607.464.393.036 2.392-.285 2.678-.393.285-.107.392-.071.571 0 .75.286 1.82.358 2.25-1.107.428-1.464-.572-1.071-.715-1-.143.072-.285.036-.25-.071.179-.357-.107-.322-.25-.357-.392-.036-.928.393-1.106.535-.179.143-.357.143-.393.108-.536-.286-2.142.107-2.642-.75.035-.25-.393-3.786-.643-4.393-.036-.143-.107-.357.071-.572.393-.607 1.536.036 2.143.036.75-.036.857-.321 1.07-.571.18-.25.322-.108.43-.179.142-.071 0-.25.07-.357.036-.107.108-.036.215-.143.143-.107 0-.357.036-.429.178-.285.678-.071.392-.785-.178-.393.072-.822.286-1.107.357-.465 1.75-2.393-.678-4.393-2.321-1.929-4.642-1.75-6.177-.143-1.5 1.643-.75 4.036-.607 4.643.143.643-.286 1.214-.821 1.464-.429.179-1.357.821-2.071 1.429.107-5.143 3.213-9.643 7.997-11.572.215.25.429.5.679.714-.536.393-1.678 1.429-1.678 1.429s.143.036.321.071l.321.108s1.036-.858 1.5-1.215c.357.286.786.536 1.214.715-.25.392-.821 1.5-.821 1.5s.143.071.25.178l.214.143s.643-1.214.893-1.607a6.684 6.684 0 0 0 1.642.321v2.179a18.96 18.96 0 0 1-1.428-.072l-.214-.035.107.178c.071.143.142.25.214.357l.036.036h.071c.25.036.964.036 1.25.036v4h.57v-.929c.822-.035 1.5-.107 2.322-.178h.035l.714-.643-.392.036a31.16 31.16 0 0 1-2.321.214s-.25 0-.357.036v-2.536c1-.036 2-.179 2.999-.429.286.643.786 2.25.786 2.25l.535-.178s-.5-1.572-.785-2.25c.82-.25 1.642-.607 2.392-1.036.607.75 1.142 1.571 1.57 2.464-.392.179-1.106.429-1.106.429.571.071 1 .214 1 .214s.214-.071.321-.143c.036.107.143.357.143.357l.714.322-.072-.214s-.25-.572-.285-.715c.75-.393 1.5-.821 2.214-1.285a12.753 12.753 0 0 1 2.07 7c-.107 4.214-2.106 7.928-5.141 10.25zm-22.278-19.965l-.215.179c-.785.678-2.57 2.536-2.285 4.536l.036.142.107.393.25-.214c1.107-1 1.928-2.714 2.25-4.643l.106-.536-.25.143zm-3.642 3.465l-.107.25c-.108.321-.357 1.035-.465 1.964-.178 1.321-.142 3.178 1.036 4.607l.143.179.143.178.178-.857c.179-1.5-.071-4.643-.607-6.071l-.178-.465-.143.215zm-1.322 5.428v.25c-.106 1.357-.035 4.679 2.678 6.429l.322.214v-.393c-.036-1.25-1.535-5.036-2.607-6.393l-.32-.393-.072.286zm.465 5.929l.036.214c.392 1.893 2.213 5 4.998 5.893l.393.107-.143-.393c-.536-1.428-3.213-4.75-4.963-5.857l-.393-.25.072.286zm5.641-11.929l-.214.143c-2.071 1.286-3.07 2.821-3 4.714l.036.429.286-.25c1.143-.929 2.535-3.322 2.963-4.679l.143-.5-.214.143zM108.576 18l-.142.143c-.536.5-2.25 2.357-2.107 4.607.036.357.107.714.25 1.107l.107.357.214-.321c.822-1.143 1.928-4.214 1.857-5.643l-.036-.429-.143.179zm.108 3.929l-.108.178c-.856 1.286-1.32 2.607-1.285 3.857.036.893.321 1.786.857 2.572l.178.285.143-.285c.393-.715.679-3 .643-4.822 0-.643-.071-1.178-.179-1.535l-.107-.393-.142.143zm.999 4.214l-.071.178c-.25.822-.393 1.643-.357 2.429.036 1.75.821 3.143 2.32 4.107l.25.143.072-.357.036-.286c-.036-1.428-1.107-5.036-1.928-6.143l-.215-.285-.107.214zm-2.927 5.607l.107.179c1.106 1.892 3.034 4.321 6.57 3.678l.285-.036-.179-.25c-.678-1-4.998-3.428-6.498-3.678l-.428-.072.143.179zm5.248 4.786l-.571.143.535.214c2.25.928 5.106 1.214 6.748.643.607-.215 1-.536 1.464-1 2.892.285 5.606 2.714 7.177 4.678l.071.107.107-.035c.179-.072.465-.286.572-.393l.107-.107-.107-.143c-1.643-2.143-4.25-3.5-4.356-3.536-2.25-1.143-6.356-2.036-11.747-.571z"/><path d="M112.147 30.5l.036.179c.32 2.142 1.213 4.928 4.82 4.607l.214-.036-.072-.214c-.25-.965-3.534-3.786-4.713-4.572l-.357-.178.072.214zm25.457-19.714l.107.535c.321 1.965 1.143 3.643 2.25 4.643l.25.215.07-.393.036-.143c.286-2-1.5-3.822-2.285-4.536l-.214-.178-.214-.143zm3.749 3.393l-.179.464c-.535 1.393-.82 4.571-.607 6.071l.179.857.143-.178.143-.179c1.142-1.393 1.178-3.285 1.035-4.607-.107-.928-.357-1.643-.464-1.964l-.107-.25-.143-.214zm1.392 5.428l-.321.393c-1.107 1.357-2.57 5.107-2.606 6.393v.393l.32-.215c2.679-1.75 2.75-5.071 2.679-6.428l-.036-.25-.036-.286zm-.428 5.964l-.393.25c-1.714 1.108-4.427 4.429-4.963 5.858l-.143.392.393-.107c2.785-.893 4.606-4 4.999-5.893l.035-.214.072-.286zm-5.748-11.928l.142.5c.393 1.357 1.75 3.786 2.857 4.714l.285.25.036-.428c.107-1.893-.821-3.465-2.892-4.786l-.214-.143-.214-.107zm1.178 4.214v.429c-.072 1.428 1.035 4.5 1.856 5.643l.215.321.107-.357c.143-.393.214-.75.25-1.107.142-2.286-1.571-4.107-2.107-4.607l-.143-.143-.178-.179zm-.072 3.929l-.107.393c-.107.357-.178.892-.178 1.535-.036 1.822.25 4.107.642 4.822l.143.285.179-.285a4.914 4.914 0 0 0 .857-2.572c.035-1.214-.429-2.535-1.286-3.857l-.107-.178-.143-.143zm-.928 4.178l-.214.286c-.821 1.107-1.893 4.714-1.928 6.143 0 0 .035.25.035.286l.072.357.25-.143c1.5-.964 2.285-2.322 2.32-4.107.036-.786-.107-1.607-.356-2.429l-.072-.178-.107-.215zm3.106 5.607l-.428.072c-1.535.25-5.856 2.678-6.498 3.678l-.179.25.286.036c3.57.607 5.463-1.786 6.57-3.678l.106-.179.143-.179zm-17.209 5.5c-.107.072-2.714 1.393-4.356 3.536l-.107.143.107.107c.107.107.393.322.571.393l.107.036.072-.107c1.57-1.965 4.284-4.393 7.176-4.679.464.464.821.786 1.464 1 1.643.571 4.463.286 6.748-.643l.536-.214-.571-.143c-5.32-1.429-9.39-.536-11.747.571zm11.746-6.75l-.356.179c-1.143.786-4.464 3.607-4.713 4.571l-.072.215.214.035c3.606.322 4.463-2.5 4.82-4.607l.036-.178.072-.215zM42.274 8.357h4.534V12.5h-4.534V8.357zm.357 29.107v-20.25h3.82V37.43h-3.82v.035zM13.746 17.25h3.82v20.214h-3.748v-3h-.072C12.211 37 9.64 38.036 6.82 38.036c-4.213 0-6.64-3.215-6.64-7.286v-13.5H4v11.964c0 3.5.821 6.072 4.463 6.072 1.57 0 3.713-.822 4.499-2.893.714-1.893.75-4.286.75-4.75V17.25h.035zm11.461 2.964h.072c1.285-2.535 4.106-3.571 6.105-3.571 1.392 0 7.64.357 7.64 6.857v13.964h-3.82V24.75c0-3.357-1.428-5.143-4.641-5.143 0 0-2.107-.107-3.713 1.5-.572.572-1.607 1.464-1.607 5.393v11h-3.785V17.25h3.75v2.964zm37.275 3.536c-.214-2.536-1.392-4.286-4.106-4.286-3.641 0-5.034 3.143-5.034 7.893 0 4.714 1.393 7.893 5.034 7.893 2.535 0 4.07-1.643 4.285-4.536h3.82C66.16 35.25 62.804 38 58.341 38c-6.427 0-8.998-4.571-8.998-10.5 0-5.893 2.964-10.821 9.319-10.821 4.249 0 7.426 2.678 7.64 7.035h-3.82v.036zm9.676 4.321c-.285 3.536 1.178 7.179 5.034 7.179 2.964 0 4.428-1.143 4.892-4.071h3.999c-.607 4.571-4.142 6.857-8.926 6.857-6.427 0-8.998-4.572-8.998-10.5 0-5.893 2.964-10.822 9.32-10.822 5.997.143 8.854 3.929 8.854 9.5v1.893H72.158v-.036zm10.14-2.642c.072-3.358-1.428-5.965-5.141-5.965-3.178 0-5.035 2.679-5.035 5.965h10.176zm8.319 11.964V19.929h-3.463v-2.643h3.463v-4.322c.107-4.393 3.428-5.571 6.284-5.571.928 0 1.821.25 2.714.393v3.178c-.643-.035-1.286-.107-1.928-.107-2.143 0-3.392.572-3.285 2.75v3.679h4.641v2.643h-4.641v17.464h-3.785zm77.407-.036V19.464h-4.035V17.25h4.035v-4.286c0-3.428 1.392-5 4.856-5 .75 0 1.57.286 2.285.429v1.964c-.464-.071-1-.143-1.464-.143-3.285 0-3.356 1.643-3.25 4.536v2.571h4.57v2.215h-4.57v17.893h-2.427v-.072zm26.564-10.036c0 5.286-2.964 10.643-9.355 10.643-6.39 0-9.354-5.357-9.354-10.643 0-5.285 2.963-10.642 9.354-10.642 6.391 0 9.355 5.357 9.355 10.642zm-9.355-8.464c-4.855 0-6.748 4.714-6.748 8.429 0 3.714 1.928 8.428 6.748 8.428 4.856 0 6.748-4.714 6.748-8.428 0-3.679-1.928-8.429-6.748-8.429zm15.246 18.5h-2.392V21.786c.036-1.572-.107-3.143-.214-4.536h2.463l.107 2.964h.072c.714-2.035 2.535-3.464 4.534-3.571.786-.036 1.607 0 2.392.036V19c-.464-.036-1-.143-1.464-.143-3.57 0-5.427 2.572-5.534 6.393v12.107h.036zm18.638-9.5c.071 4.286 2.035 7.893 6.962 7.893 2.856 0 5.213-2.036 5.784-4.786h2.535c-1.25 4.786-4.249 7-9.069 7-5.998 0-8.783-5.143-8.783-10.643 0-5.428 2.999-10.642 8.962-10.642 6.712 0 9.14 4.928 9.14 11.214h-15.531v-.036zm12.889-2.178c-.286-3.893-2.357-6.786-6.534-6.786-3.928 0-5.998 3.286-6.32 6.786h12.854zm5.855-8.393l6.927 16.75 6.677-16.75h2.642l-7.962 20.071h-2.714l-8.212-20.071h2.642zm19.316 10.571c.072 4.286 2.035 7.893 6.963 7.893 2.856 0 5.212-2.036 5.784-4.786h2.535c-1.25 4.786-4.25 7-9.07 7-5.998 0-8.782-5.143-8.782-10.643 0-5.428 2.999-10.642 8.961-10.642 6.713 0 9.14 4.928 9.14 11.214h-15.53v-.036zm12.925-2.178c-.285-3.893-2.356-6.786-6.534-6.786-3.927 0-5.998 3.286-6.32 6.786h12.854zm8.712 11.678h-2.392V21.786c.036-1.572-.107-3.143-.214-4.536h2.463l.107 2.964h.072c.714-2.035 2.535-3.464 4.534-3.571.786-.036 1.607 0 2.392.036V19c-.464-.036-1-.143-1.464-.143-3.57 0-5.427 2.572-5.534 6.393v12.107h.036zm12.139-20.071l6.748 16.785 6.713-16.785h2.606l-11.068 27.75h-2.642l3.035-7.679-8.32-20.071h2.928zm38.954 6.143c-.215-3.072-2.143-4.572-5.463-4.572-3.678 0-5.963 3.857-5.963 8.393 0 4.607 2.285 8.464 5.963 8.464 3.106 0 5.284-1.928 5.463-4.678h2.606c-.643 4.607-3.285 6.893-7.855 6.893-5.998 0-8.783-5.143-8.783-10.643 0-5.429 3-10.643 8.962-10.643 4.106 0 7.462 2.464 7.676 6.75h-2.606v.036zm8.354-3.108h.072c1.392-2.464 3.677-3.642 6.284-3.642 6.57 0 7.07 5.785 7.07 8.107v12.571h-2.393V24.393c0-3.464-2-5.536-5.284-5.536-3.963 0-5.749 3.322-5.749 6.929v11.571h-2.392V8.464h2.392v11.857zm20.066-8.857h-2.785v-3h2.785v3zm-.178 5.822v20.071h-2.392V17.286h2.392zm7.105 20.071h-2.392V8.464h2.392zm18.852-2.964l-.072-.143c-1.642 2.393-4.07 3.714-6.89 3.714-5.963 0-8.248-5.678-8.248-10.714 0-5.214 2.285-10.571 8.247-10.571 2.678 0 5.463 1.285 6.891 3.642l.072-.071V8.464h2.392v24.357c0 1.572.107 3.143.214 4.536h-2.464l-.142-2.964zm-6.534-15.536c-4.57 0-6.034 4.25-6.034 8.072 0 3.714 1.07 8.785 5.677 8.785 5.248 0 6.855-4.357 6.855-8.928-.036-4.036-1.821-7.929-6.498-7.929zM153.385.179h.785v49.75h-.785z"/></g></svg><view id="menu" viewBox="1170.4 484.4 46 46"/><svg width="46" height="46" viewBox="-1 -1 46 46" x="1170.4" y="484.4" xmlns="http://www.w3.org/2000/svg"><path opacity=".7" d="M37 12.146A2.854 2.854 0 0 1 34.146 15H9.854A2.854 2.854 0 0 1 7 12.146v-.292A2.854 2.854 0 0 1 9.854 9h24.292A2.854 2.854 0 0 1 37 11.854v.292zm0 10A2.854 2.854 0 0 1 34.146 25H9.854A2.854 2.854 0 0 1 7 22.146v-.292A2.854 2.854 0 0 1 9.854 19h24.292A2.854 2.854 0 0 1 37 21.854v.292zm0 10A2.854 2.854 0 0 1 34.146 35H9.854A2.854 2.854 0 0 1 7 32.146v-.292A2.854 2.854 0 0 1 9.854 29h24.292A2.854 2.854 0 0 1 37 31.854v.292z"/></svg><view id="search_icon" viewBox="1014.09 600.4 22 21"/><svg width="22" height="21" viewBox="-1 -1 22 21" x="1014.09" y="600.4" xmlns="http://www.w3.org/2000/svg"><path d="M18.49 18.425a1.879 1.879 0 0 1-2.65 0l-3.88-3.863a7.853 7.853 0 1 1 2.66-2.649l3.87 3.865a1.856 1.856 0 0 1 0 2.647zM11.34 4.409a4.877 4.877 0 1 0 0 6.885 4.9 4.9 0 0 0 0-6.885z" fill="#0F5975" fill-rule="evenodd"/></svg></svg>